<svg xmlns="http://www.w3.org/2000/svg" viewBox="0 0 64 64">
  <defs>
    <linearGradient id="gold" x1="0%" y1="0%" x2="100%" y2="100%">
      <stop offset="0%" stop-color="#FFD700"/>
      <stop offset="50%" stop-color="#FFC107"/>
      <stop offset="100%" stop-color="#FF9800"/>
    </linearGradient>
    <linearGradient id="pear" x1="0%" y1="0%" x2="100%" y2="100%">
      <stop offset="0%" stop-color="#AED581"/>
      <stop offset="100%" stop-color="#558B2F"/>
    </linearGradient>
  </defs>
  
  <g transform="translate(20, 32) rotate(-45)">
    <path d="M0 -14 C-2 -14 -4 -12 -4 -10 C-6 -8 -8 -4 -8 0 C-10 6 -8 12 -4 16 C0 20 4 20 8 16 C12 12 14 6 12 0 C12 -4 10 -8 8 -10 C8 -12 6 -14 4 -14 C2 -14 0 -14 0 -14 Z" fill="url(#pear)" stroke="#33691E" stroke-width="1"/>
    <rect x="-1.5" y="-18" width="3" height="5" rx="1" fill="#795548"/>
  </g>
  
  <rect x="28" y="29" width="30" height="6" fill="url(#gold)"/>
  <path d="M50 29 L50 40 L54 40 L54 37 L58 37 L58 44 L54 44 L54 42 L50 42" fill="url(#gold)"/>
</svg>
